# File created by Blade
# Date/Time:  Wed Apr 08 14:10:35 2015
# Frame Rate: 120.000 fps
#------------------------------------------------------
:FULLY-SPECIFIED
:DEGREES
695
root 1.962850 32.951475 14.779852 11.568856 4.387592 -2.256748
Spine -10.329875 -7.481955 1.690781
Head 0.099244 -3.613390 -0.216220
LeftShoulder -24.235379 39.840579 19.970510
LeftArm 56.134659 -63.723323 -62.186147
LeftForeArm 12.335908 -0.000000 -4.665575
LeftHand -0.405585 -0.000000 0.635625
LeftHandThumb1 -26.253704 0.000000 33.147579
RightShoulder -10.507785 3.045615 -32.473455
RightArm 8.775278 15.918474 34.518155
RightForeArm -17.541463 -0.000000 -0.388691
RightHand -0.784194 -0.000000 4.325551
RightHandThumb1 -24.326973 -0.000000 -32.862282
LeftUpLeg -7.205525 -7.372082 1.407443
LeftLeg 1.133913 -0.000000 -0.000000
LeftFoot -8.801931 6.712907 -14.948170
LeftToeBase -6.992532 -0.000000 0.000000
RightUpLeg -5.046869 7.683680 3.502128
RightLeg -2.450225 -0.000000 0.000000
RightFoot -9.392290 -19.480835 9.157087
RightToeBase -0.827151 -0.000000 0.000000
696
root 1.982482 32.939269 14.730551 11.271685 4.440897 -2.291781
Spine -9.985168 -7.557952 1.693732
Head 0.057890 -3.569123 -0.120821
LeftShoulder -24.250145 39.830523 19.972566
LeftArm 55.888124 -63.728877 -61.780740
LeftForeArm 12.288209 0.000000 -4.471144
LeftHand -0.282453 -0.000000 0.711587
LeftHandThumb1 -26.253704 0.000000 33.147579
RightShoulder -10.532637 3.127067 -32.521673
RightArm 8.828573 15.867229 34.228621
RightForeArm -17.546891 -0.000000 -0.212790
RightHand -0.700531 -0.000000 4.042654
RightHandThumb1 -24.326973 -0.000000 -32.862282
LeftUpLeg -7.010222 -7.494019 1.388717
LeftLeg 1.176631 -0.000000 -0.000000
LeftFoot -8.952310 6.737892 -14.886638
LeftToeBase -6.990716 -0.000000 0.000000
RightUpLeg -4.815556 7.634090 3.568561
RightLeg -2.485766 -0.000000 0.000000
RightFoot -9.421291 -19.683146 8.951673
RightToeBase -0.678918 -0.000000 0.000000
697
root 2.004797 32.927789 14.678851 11.101965 4.472500 -2.322450
Spine -9.792598 -7.596923 1.715175
Head 0.059270 -3.524002 -0.085533
LeftShoulder -24.302825 39.868120 19.938853
LeftArm 55.637305 -63.690047 -61.284943
LeftForeArm 12.422030 -0.000000 -4.325003
LeftHand -0.211909 -0.000000 1.316268
LeftHandThumb1 -26.253704 0.000000 33.147579
RightShoulder -10.535895 3.110596 -32.553443
RightArm 8.872942 15.871534 33.871081
RightForeArm -17.705569 -0.000000 -0.004283
RightHand -0.835686 -0.000000 4.223137
RightHandThumb1 -24.326973 -0.000000 -32.862282
LeftUpLeg -6.942965 -7.665815 1.388855
LeftLeg 1.220833 -0.000000 -0.000000
LeftFoot -9.128119 6.782293 -14.908640
LeftToeBase -6.973477 -0.000000 0.000000
RightUpLeg -4.735495 7.592583 3.602729
RightLeg -2.479377 -0.000000 0.000000
RightFoot -9.460404 -19.837032 8.756638
RightToeBase -0.583638 -0.000000 0.000000
698
root 2.024413 32.918892 14.629378 10.968100 4.495821 -2.374280
Spine -9.659211 -7.641237 1.778273
Head 0.084359 -3.508059 -0.065860
LeftShoulder -24.344295 39.907500 19.880985
LeftArm 55.207064 -63.677641 -60.621141
LeftForeArm 12.359703 -0.000000 -4.105751
LeftHand 0.149319 0.000000 1.302715
LeftHandThumb1 -26.253704 0.000000 33.147579
RightShoulder -10.553213 3.108112 -32.615953
RightArm 8.987128 15.684286 33.512764
RightForeArm -17.475365 -0.000000 0.125996
RightHand -0.728724 -0.000000 3.572140
RightHandThumb1 -24.326973 -0.000000 -32.862282
LeftUpLeg -6.916458 -7.769628 1.393422
LeftLeg 1.280996 -0.000000 -0.000000
LeftFoot -9.279122 6.884133 -14.742342
LeftToeBase -6.991180 -0.000000 0.000000
RightUpLeg -4.704678 7.548584 3.653681
RightLeg -2.436839 -0.000000 0.000000
RightFoot -9.483893 -19.946476 8.563395
RightToeBase -0.402976 -0.000000 0.000000
699
root 2.047293 32.914536 14.574910 10.987561 4.484461 -2.397247
Spine -9.714586 -7.625275 1.828405
Head 0.181060 -3.518662 -0.058380
LeftShoulder -24.331451 39.942624 19.889731
LeftArm 54.860869 -63.660097 -60.089396
LeftForeArm 12.188963 -0.000000 -3.867708
LeftHand 0.518633 -0.000000 1.552409
LeftHandThumb1 -26.253704 0.000000 33.147579
RightShoulder -10.543534 2.987642 -32.678456
RightArm 9.095138 15.681538 33.201726
RightForeArm -17.500459 0.000000 0.326470
RightHand -0.676195 -0.000000 3.262646
RightHandThumb1 -24.326973 -0.000000 -32.862282
LeftUpLeg -7.055028 -7.972866 1.433004
LeftLeg 1.344632 -0.000000 -0.000000
LeftFoot -9.363700 6.869931 -14.878128
LeftToeBase -7.011471 -0.000000 0.000000
RightUpLeg -4.859668 7.529106 3.632926
RightLeg -2.348534 -0.000000 0.000000
RightFoot -9.501072 -19.997450 8.430217
RightToeBase -0.286283 -0.000000 0.000000
700
root 2.071299 32.914583 14.523830 11.043372 4.474271 -2.433737
Spine -9.814636 -7.580880 1.901279
Head 0.264076 -3.571458 -0.059589
LeftShoulder -24.390344 40.051454 19.806980
LeftArm 54.750156 -63.632200 -59.699799
LeftForeArm 11.948466 -0.000000 -3.648898
LeftHand 0.599976 -0.000000 1.817349
LeftHandThumb1 -26.253704 0.000000 33.147579
RightShoulder -10.577797 2.855421 -32.769789
RightArm 9.164529 15.875977 32.933348
RightForeArm -17.673767 -0.000000 0.583400
RightHand -0.403858 -0.000000 3.127102
RightHandThumb1 -24.326973 -0.000000 -32.862282
LeftUpLeg -7.222248 -8.143103 1.473733
LeftLeg 1.393231 -0.000000 -0.000000
LeftFoot -9.427032 6.880886 -14.943598
LeftToeBase -7.056314 -0.000000 0.000000
RightUpLeg -5.019839 7.539694 3.609464
RightLeg -2.320842 -0.000000 0.000000
RightFoot -9.471004 -20.035193 8.398948
RightToeBase -0.189724 -0.000000 0.000000
